# xmcd
#
# Track frame offsets: 
#        150
#        22490
#        44375
#        70610
#        91705
#        111910
#        137058
#        158813
#        189165
#        201478
#        220015
#        231465
#
# Disc length: 3436 seconds
#
# Revision: 2
# Processed by: cddbd v1.5.2PL0 Copyright (c) Steve Scherf et al.
# Submitted via: ExactAudioCopy v0.99pb5
#
DISCID=aa0d6a0c
DTITLE=Pinetop Perkins - Pinetop's Boogie Woogie
DYEAR=1992
DGENRE=
TTITLE0=Kidney Stew
TTITLE1=You Don't Have To Go
TTITLE2=Ida B.
TTITLE3=Pinetop's Boogie Woogie
TTITLE4=Look On Yonder Wall
TTITLE5=Caldonia
TTITLE6=High Heel Sneakers
TTITLE7=Sunny Road Blues
TTITLE8=That Ain't The Way To Do It
TTITLE9=How Long
TTITLE10=Just A Little Bit
TTITLE11=Going Down Slow
EXTD=
EXTT0=
EXTT1=
EXTT2=
EXTT3=
EXTT4=
EXTT5=
EXTT6=
EXTT7=
EXTT8=
EXTT9=
EXTT10=
EXTT11=
PLAYORDER=
